<svg xmlns="http://www.w3.org/2000/svg" width="27" height="26" viewBox="0 0 27 26" fill="none">
  <g clip-path="url(#clip0_4160_188)">
    <path d="M7.35436 6.95895L5.22411 5.12304C4.9299 4.86948 4.48613 4.90242 4.23257 5.19663C3.97901 5.49085 4.01194 5.93461 4.30616 6.18817L6.43641 8.02407C6.73062 8.27763 7.17439 8.2447 7.42795 7.95048C7.68151 7.65627 7.64858 7.21251 7.35436 6.95895ZM4.82047 12.9231L1.96894 13.1348C1.58136 13.1635 1.29102 13.5004 1.31978 13.888C1.34855 14.2756 1.68544 14.5659 2.07302 14.5371L4.92455 14.3255C5.31213 14.2968 5.60247 13.9599 5.57371 13.5723C5.54494 13.1847 5.20805 12.8944 4.82047 12.9231ZM24.5007 11.4625L21.6492 11.6742C21.2616 11.7029 20.9713 12.0398 21 12.4274C21.0288 12.815 21.3657 13.1053 21.7533 13.0766L24.6048 12.8649C24.9924 12.8362 25.2827 12.4993 25.254 12.1117C25.2252 11.7241 24.8883 11.4338 24.5007 11.4625ZM21.0901 3.94554C20.7959 3.69198 20.3521 3.72492 20.0985 4.01913L18.2626 6.14938C18.0091 6.4436 18.042 6.88736 18.3362 7.14092C18.6304 7.39448 19.0742 7.36155 19.3278 7.06734L21.1637 4.93708C21.4172 4.64287 21.3843 4.19915 21.0901 3.94554ZM12.3987 1.03276C12.0112 1.06152 11.7208 1.39842 11.7496 1.78599L11.9612 4.63753C11.99 5.0251 12.3269 5.31545 12.7144 5.28668C13.102 5.25792 13.3924 4.92102 13.3636 4.53345L13.152 1.68191C13.1232 1.29434 12.7863 1.00399 12.3987 1.03276ZM16.8462 7.75793C15.2281 6.66531 13.2184 6.37737 11.3175 6.98379C9.11214 7.6692 7.43528 9.58446 7.05379 11.8549C6.67338 14.1393 7.47306 16.3643 9.20338 17.8293C9.82108 18.3617 10.2246 19.2389 10.2933 20.1645L10.3048 20.3188C10.3339 20.7114 10.6653 20.9971 11.058 20.9679L16.6676 20.5516C17.0603 20.5224 17.3459 20.191 17.3167 19.7984L17.3053 19.6441C17.2376 18.7325 17.5192 17.7762 18.0915 17.1274C19.1811 15.8479 19.7225 14.2144 19.5976 12.5315C19.454 10.5962 18.4503 8.85158 16.8462 7.75793ZM13.1308 10.8963C12.0729 10.9748 11.3549 11.7336 11.2135 12.5609C11.1491 12.9372 10.7949 13.2005 10.4017 13.1362C10.0195 13.0709 9.76186 12.7072 9.82717 12.325C10.0705 10.8969 11.3004 9.62198 13.0267 9.49386C13.4142 9.4651 13.7511 9.75544 13.7799 10.143C13.8087 10.5306 13.5183 10.8675 13.1308 10.8963ZM11.1621 22.3703L11.2141 23.0715C11.3002 24.2315 12.3138 25.1051 13.4738 25.019L14.8762 24.9149C16.0362 24.8288 16.9098 23.8152 16.8237 22.6552L16.7716 21.954L11.1621 22.3703Z" fill="#FFD034"/>
  </g>
  <defs>
    <clipPath id="clip0_4160_188">
      <rect width="24" height="24" fill="white" transform="translate(0.431641 1.9209) rotate(-4.24445)"/>
    </clipPath>
  </defs>
</svg>