<svg xmlns="http://www.w3.org/2000/svg" width="56" height="56" viewBox="0 0 56 56" fill="none">
  <g clip-path="url(#clip0_4160_192)">
    <path d="M34.1037 13.9772C29.7914 23.5167 23.8984 25.8604 14.2143 21.4826C23.8984 25.8604 26.0452 31.8037 21.7197 41.3721C26.0452 31.8037 32.0408 29.5412 41.6092 33.8666C32.0408 29.5412 29.7914 23.5167 34.1037 13.9772Z" fill="#FFAC33" stroke="#FFAC33" stroke-width="2.085" stroke-linejoin="round"/>
    <path d="M46.1269 25.1103C44.325 25.636 43.3184 25.107 42.7848 23.2778C43.3184 25.107 42.7597 26.0926 40.9523 26.6199C42.7597 26.0926 43.7671 26.645 44.2944 28.4524C43.7671 26.645 44.325 25.636 46.1269 25.1103Z" fill="#FFAC33" stroke="#FFAC33" stroke-width="1.23156" stroke-linejoin="round"/>
    <path d="M22.9709 6.10554C22.9348 8.24467 22.0191 9.16186 19.8476 9.12522C22.0191 9.16186 22.9035 10.1029 22.8673 12.2486C22.9035 10.1029 23.845 9.19267 25.9906 9.22887C23.845 9.19267 22.9348 8.24467 22.9709 6.10554Z" fill="#FFAC33" stroke="#FFAC33" stroke-width="1.40373" stroke-linejoin="round"/>
  </g>
  <defs>
    <clipPath id="clip0_4160_192">
      <rect width="40.0854" height="40.0854" fill="white" transform="matrix(-0.504826 0.863221 0.863221 0.504826 20.7266 0.253906)"/>
    </clipPath>
  </defs>
</svg>