<svg xmlns="http://www.w3.org/2000/svg" width="61" height="61" viewBox="0 0 61 61" fill="none">
  <path fill-rule="evenodd" clip-rule="evenodd" d="M50.0079 17.1991L47.7781 22.5815L42.3957 24.8114L39.7002 23.694L23.3193 40.0748C24.2634 42.4848 23.7633 45.3298 21.816 47.2771C19.1932 49.9 14.9406 49.8999 12.3177 47.2771C9.69486 44.6542 9.69486 40.4017 12.3177 37.7788C14.265 35.8315 17.11 35.3314 19.52 36.2755L35.9009 19.8946L34.7834 17.1991L37.0133 11.8168L42.3957 9.58689L43.7487 10.1471L39.3879 14.5079L40.1794 19.4154L45.0869 20.2069L49.4477 15.8461L50.0079 17.1991ZM16.0237 38.6352L13.1742 41.4847L14.2174 45.3774L18.1101 46.4206L20.9596 43.5711L19.9164 39.6784L16.0237 38.6352Z" fill="#252323"/>
  <path d="M39.3765 34.6708L49.0633 43.0663C50.3789 44.2066 50.4511 46.2236 49.22 47.4547L48.12 48.5547C46.8889 49.7858 44.8712 49.7143 43.731 48.3986L35.3361 38.7111L35.437 37.1961L38.0631 34.57L39.3765 34.6708ZM15.9805 13.903L36.6482 34.5707L35.2339 35.9849L14.5663 15.3172L12.6065 11.9433L15.9805 13.903Z" fill="#252323"/>
</svg>