<svg xmlns="http://www.w3.org/2000/svg" width="50" height="50" viewBox="0 0 50 50" fill="none">
  <g clip-path="url(#clip0_4125_1802)">
    <path d="M18.8697 46.3636C18.8697 48.3719 20.4887 49.9999 22.4857 50H28.224C30.2211 50 31.8401 48.3719 31.8401 46.3636V39.7672C29.8911 40.7501 27.6888 41.3049 25.3566 41.3049C23.0232 41.3049 20.8194 40.7502 18.8697 39.7663V46.3636Z" fill="#252323"/>
    <path d="M38.0992 37.7484L42.1752 41.8473L43.194 40.8228L39.118 36.7238L38.0992 37.7484Z" fill="#252323"/>
    <path d="M7.52545 40.8219L8.5451 41.8464L12.6211 37.7475L11.6023 36.7221L7.52545 40.8219Z" fill="#252323"/>
    <path d="M23.5469 39.7512C24.1416 39.8193 24.7464 39.856 25.3593 39.856C26.0722 39.856 26.7742 39.8074 27.4622 39.7157V29.7706H23.5469V39.7512Z" fill="#252323"/>
    <path d="M25.3593 7.97155C16.6041 7.9716 9.50657 15.1092 9.5065 23.9138C9.50668 31.5969 14.9116 38.0095 22.1061 39.5186V29.7706H20.9982C18.8671 29.7705 17.6764 27.2962 18.9986 25.6157C20.4983 23.7112 23.5465 24.7773 23.5469 27.2066V28.3217H27.4622V27.2066C27.4625 24.7772 30.5108 23.7109 32.0104 25.6157C33.3326 27.2961 32.1417 29.7703 30.0109 29.7706H28.9038V39.4547C35.9524 37.8356 41.2119 31.4928 41.2121 23.9138C41.212 15.1092 34.1145 7.97161 25.3593 7.97155Z" fill="#252323"/>
    <path d="M30.8804 26.515C30.2286 25.6872 28.9041 26.1509 28.9038 27.2066V28.3217H30.0109C30.9368 28.3214 31.4548 27.2453 30.8804 26.515Z" fill="#252323"/>
    <path d="M22.1061 27.2066C22.1058 26.1511 20.7814 25.6881 20.1295 26.515C19.5549 27.2454 20.072 28.3216 20.9982 28.3217H22.1061V27.2066Z" fill="#252323"/>
    <path d="M44.0936 24.6382H49.8584V23.1884H44.0936V24.6382Z" fill="#252323"/>
    <path d="M0.858398 24.6382H6.62321V23.1884H0.858398V24.6382Z" fill="#252323"/>
    <path d="M7.52457 7.00385L11.6014 11.1037L12.6202 10.0783L8.54422 5.97933L7.52457 7.00385Z" fill="#252323"/>
    <path d="M38.0975 10.0774L39.1163 11.1019L43.1922 7.00296L42.1735 5.97844L38.0975 10.0774Z" fill="#252323"/>
    <path d="M24.638 5.79733H26.0788V0H24.638V5.79733Z" fill="#252323"/>
  </g>
  <defs>
    <clipPath id="clip0_4125_1802">
      <rect width="49" height="50" fill="white" transform="matrix(-1 0 0 1 49.8584 0)"/>
    </clipPath>
  </defs>
</svg>