<svg xmlns="http://www.w3.org/2000/svg" width="61" height="61" viewBox="0 0 61 61" fill="none">
  <path fill-rule="evenodd" clip-rule="evenodd" d="M24.4046 16.2245C25.3675 16.4723 26.2847 16.8337 27.1438 17.2895L30.7102 13.7246L35.156 18.1688L31.7906 21.5326C32.3824 22.4381 32.8597 23.4242 33.204 24.4714H37.7617V30.7571H33.6106C33.3735 32.0069 32.9498 33.1898 32.3722 34.279L35.1529 37.0597L30.7087 41.5039L28.1306 38.9258C27.001 39.6644 25.7471 40.2283 24.4046 40.5739V44.1143H18.1189V40.5739C16.7773 40.2286 15.5234 39.6667 14.3944 38.9289L11.8209 41.5039L7.37667 37.0597L10.1512 34.2821C9.573 33.1922 9.1501 32.0078 8.91281 30.7571H4.76172V24.4714H9.31948C9.66413 23.4231 10.1417 22.4358 10.7344 21.5296L7.3736 18.1688L11.8178 13.7246L15.3811 17.2879C16.2398 16.8326 17.1566 16.4721 18.1189 16.2245V11.1143H24.4046V16.2245ZM21.2617 20.5428C16.9223 20.5428 13.4046 24.0606 13.4046 28.4C13.4046 32.7394 16.9223 36.2571 21.2617 36.2571C25.6011 36.2571 29.1189 32.7394 29.1189 28.4C29.1189 24.0606 25.6011 20.5428 21.2617 20.5428Z" fill="#252323"/>
  <path d="M54.043 36.5278L52.2422 38.3286C53.0191 40.1184 53.0189 42.1628 52.2422 43.9526L54.3721 46.0825L50.3789 50.0757L48.1055 47.8022C46.4346 48.387 44.5884 48.3241 42.9551 47.6147L41.0664 49.5034L37.0732 45.5112L39.1064 43.478C38.5784 41.9691 38.5781 40.3163 39.1055 38.8071L36.8994 36.6001L40.8926 32.6079L42.9531 34.6685C44.5871 33.9581 46.4347 33.8929 48.1064 34.478L50.0498 32.5347L54.043 36.5278ZM45.7607 38.7495C44.2015 38.7496 42.9375 40.0135 42.9375 41.5728C42.9377 43.1319 44.2016 44.3959 45.7607 44.396C47.3199 44.396 48.5838 43.1319 48.584 41.5728C48.584 40.0134 47.3201 38.7495 45.7607 38.7495Z" fill="#252323"/>
</svg>