<svg xmlns="http://www.w3.org/2000/svg" width="61" height="61" viewBox="0 0 61 61" fill="none">
  <path d="M26.835 24.114C34.335 16.6143 40.335 7.61384 51.835 9.61403" stroke="#252323" stroke-width="2"/>
  <path d="M1.83496 26.1143C4.16829 26.7809 8.53496 29.1143 15.335 29.1143C16.7042 29.1143 17.9478 28.9656 19.0689 28.7172" stroke="#252323" stroke-width="2"/>
  <path d="M44.835 40.1143C44.835 41.7711 43.4918 43.1143 41.835 43.1143C40.1781 43.1143 38.835 41.7711 38.835 40.1143C38.835 38.4574 40.1781 37.1143 41.835 37.1143C43.4918 37.1143 44.835 38.4574 44.835 40.1143Z" fill="#252323"/>
  <path d="M39.0938 43.0254C39.582 43.4853 40.1852 43.8243 40.8564 43.9932C40.3267 45.2658 39.7834 46.7754 39.3936 48.2891C39.0856 49.4846 38.8804 50.6535 38.8418 51.6924C38.8027 52.7438 38.9381 53.5783 39.2324 54.167C40.1074 55.9168 41.4929 56.8308 42.6123 57.0742C43.1765 57.1969 43.6161 57.14 43.8936 57.0117C44.1393 56.8979 44.2967 56.7169 44.3564 56.418C44.3763 56.3183 44.3882 56.0383 44.3447 55.5176C44.3038 55.0273 44.222 54.4065 44.1045 53.6797C43.8698 52.2277 43.5028 50.4048 43.0732 48.4541C42.7605 47.034 42.4135 45.5533 42.0654 44.1074C42.7663 44.0676 43.418 43.8462 43.9766 43.4912C44.3389 44.9955 44.7 46.5422 45.0264 48.0244C45.4592 49.9901 45.8357 51.8552 46.0791 53.3613C46.2006 54.1134 46.291 54.7899 46.3379 55.3516C46.3822 55.8825 46.3975 56.4101 46.3174 56.8105C46.1271 57.7614 45.5341 58.4556 44.7334 58.8262C43.9643 59.182 43.0601 59.2189 42.1875 59.0293C40.4324 58.6477 38.5683 57.3113 37.4434 55.0615C36.9379 54.0505 36.7976 52.8351 36.8428 51.6182C36.8885 50.3884 37.1275 49.0694 37.457 47.79C37.894 46.0934 38.5061 44.4153 39.0938 43.0254ZM45.6875 39.0381C47.2617 39.1882 49.1769 39.4734 51.0117 39.9473C52.2907 40.2776 53.5618 40.7061 54.6602 41.2607C55.747 41.8097 56.7425 42.5208 57.3828 43.4521C58.8078 45.5249 59.0764 47.8027 58.5615 49.5234C58.3055 50.3789 57.8358 51.1522 57.1523 51.6533C56.4407 52.1749 55.5463 52.3578 54.6221 52.0645C54.2329 51.9409 53.7781 51.6725 53.335 51.377C52.8661 51.0643 52.3171 50.6585 51.7178 50.1885C50.5173 49.247 49.0675 48.0149 47.5566 46.6855C46.383 45.6529 45.1664 44.5553 43.9932 43.4805C44.5619 43.115 45.0327 42.6106 45.3555 42.0137C46.5161 43.0776 47.7177 44.1636 48.877 45.1836C50.3765 46.503 51.7948 47.7066 52.9521 48.6143C53.5312 49.0684 54.0352 49.44 54.4443 49.7129C54.8787 50.0026 55.1296 50.1283 55.2266 50.1592C55.517 50.2514 55.7523 50.2011 55.9707 50.041C56.2172 49.8602 56.479 49.5024 56.6445 48.9492C56.9728 47.8517 56.8427 46.197 55.7344 44.585C55.3614 44.0428 54.6966 43.5211 53.7578 43.0469C52.8299 42.5783 51.7069 42.1925 50.5117 41.8838C48.8785 41.462 47.1627 41.1983 45.7227 41.0518C45.7949 40.7509 45.835 40.4373 45.835 40.1143C45.835 39.7413 45.783 39.3806 45.6875 39.0381ZM41.835 38.1143C42.2324 38.1143 42.6018 38.2318 42.9131 38.4316C42.8808 38.5733 42.8509 38.7084 42.8174 38.8359C42.907 39.1847 42.9981 39.5457 43.0918 39.916C43.318 40.1271 43.5483 40.3427 43.7822 40.5605C43.5792 41.4499 42.7859 42.1142 41.835 42.1143C41.181 42.1142 40.6022 41.7988 40.2373 41.3135L41.543 41.9668C41.502 41.8014 41.4595 41.6375 41.4189 41.4746C41.082 41.4471 40.6825 41.3842 40.2129 41.2812C39.976 40.9526 39.835 40.5503 39.835 40.1143C39.835 39.0097 40.7305 38.1143 41.835 38.1143ZM29.4053 27.1143L39.1143 37.1826C38.3275 37.9131 37.835 38.956 37.835 40.1143C37.835 40.2809 37.8454 40.4451 37.8652 40.6064C34.7694 39.5577 29.9927 37.4487 22.8359 33.6143C21.2151 32.7457 20.1565 31.2827 19.5176 29.5674C23.502 28.5665 26.1564 26.4014 27.2979 25.1182L29.4053 27.1143ZM30.751 10.1963C34.778 10.2736 43.1989 13.5844 43.4727 19.5244C43.8574 27.8723 43.6795 33.1567 43.2656 36.3789C42.8213 36.2086 42.3392 36.1143 41.835 36.1143C41.1653 36.1143 40.5341 36.2794 39.9795 36.5703L34.7754 22.6484L30.751 10.1963ZM25.8467 23.7432C24.9803 24.7436 22.6217 26.7367 18.9873 27.6387C18.3185 24.1664 18.939 20.24 19.9053 18.1143L25.8467 23.7432Z" fill="#252323"/>
</svg>