<svg width="41" height="41" viewBox="0 0 41 41" fill="none" xmlns="http://www.w3.org/2000/svg">
<rect x="0.75" width="40" height="40.83" rx="20" fill="#312C2B"/>
<g clip-path="url(#clip0_4146_1190)">
<path d="M28.1149 24.3833C27.8033 24.1515 27.3629 24.2163 27.1311 24.5278C27.003 24.6999 26.8677 24.8666 26.7257 25.0273C26.4685 25.3183 26.4958 25.7626 26.7867 26.0198C26.9151 26.1336 27.0807 26.1964 27.2522 26.1962C27.4466 26.1962 27.6403 26.1159 27.7792 25.9587C27.9475 25.7683 28.1077 25.571 28.2594 25.3671C28.4912 25.0556 28.4265 24.6151 28.1149 24.3833ZM29.2908 21.0858C28.9116 21.0033 28.5368 21.2439 28.4543 21.6233C28.4086 21.8327 28.3541 22.0401 28.2909 22.2449C28.1763 22.6159 28.3841 23.0096 28.7551 23.1243C28.8243 23.1456 28.8942 23.1558 28.9629 23.1558C29.2632 23.1558 29.5412 22.9619 29.6345 22.66C29.7095 22.417 29.7742 22.1709 29.8283 21.9224C29.9109 21.543 29.6703 21.1685 29.2908 21.0858ZM24.7305 26.6352C24.5432 26.7397 24.3516 26.8363 24.1561 26.9246C23.8022 27.0844 23.6449 27.5009 23.8047 27.8548C23.9221 28.1148 24.178 28.2687 24.4459 28.2687C24.5426 28.2687 24.641 28.2486 24.7349 28.2062C24.9667 28.1015 25.194 27.987 25.4161 27.863C25.7552 27.6737 25.8766 27.2454 25.6872 26.9063C25.498 26.5673 25.0696 26.4459 24.7305 26.6352ZM20.296 14.375V19.7088L17.7176 22.2871C17.4431 22.5617 17.4431 23.0068 17.7176 23.2814C17.7829 23.3468 17.8604 23.3987 17.9457 23.434C18.031 23.4694 18.1225 23.4875 18.2149 23.4874C18.3072 23.4875 18.3987 23.4693 18.484 23.434C18.5693 23.3987 18.6468 23.3468 18.7121 23.2814L21.4963 20.4972C21.6282 20.3653 21.7022 20.1865 21.7022 20V14.375C21.7022 13.9867 21.3874 13.6719 20.9991 13.6719C20.6108 13.6719 20.296 13.9867 20.296 14.375Z" fill="#EFE4DC"/>
<path d="M29.2969 12.5117C28.9085 12.5117 28.5938 12.8265 28.5938 13.2148V15.1673C26.9572 12.6006 24.0991 11 21 11C18.596 11 16.3359 11.9362 14.636 13.636C12.9362 15.3359 12 17.596 12 20C12 22.404 12.9362 24.6641 14.636 26.364C16.3359 28.0638 18.596 29 21 29C21.0059 29 21.0117 28.9993 21.0176 28.9991C21.0235 28.9993 21.0292 29 21.0352 29C21.2886 29 21.5445 28.9893 21.7958 28.9683C22.1828 28.9359 22.4702 28.5959 22.4379 28.2089C22.4054 27.822 22.0659 27.5344 21.6785 27.567C21.466 27.5847 21.2496 27.5938 21.0352 27.5938C21.0292 27.5938 21.0235 27.5945 21.0176 27.5946C21.0117 27.5945 21.0059 27.5938 21 27.5938C16.8128 27.5938 13.4062 24.1872 13.4062 20C13.4062 15.8128 16.8128 12.4062 21 12.4062C23.6985 12.4062 26.1805 13.8446 27.5368 16.1328H25.6035C25.2151 16.1328 24.9003 16.4476 24.9003 16.8359C24.9003 17.2243 25.2151 17.5391 25.6035 17.5391H27.75C28.1628 17.5395 28.5678 17.4257 28.9199 17.2102C28.9416 17.1979 28.9627 17.1844 28.983 17.1697C29.595 16.7672 30 16.0747 30 15.2891V13.2148C30 12.8265 29.6852 12.5117 29.2969 12.5117Z" fill="#EFE4DC"/>
</g>
<defs>
<clipPath id="clip0_4146_1190">
<rect width="18" height="18" fill="white" transform="translate(12 11)"/>
</clipPath>
</defs>
</svg>
