<svg width="41" height="41" viewBox="0 0 41 41" fill="none" xmlns="http://www.w3.org/2000/svg">
<rect x="0.75" width="40" height="40.83" rx="20" fill="#312C2B"/>
<g clip-path="url(#clip0_4146_1166)">
<path d="M18.1536 22.8829C18.291 23.02 18.5136 23.02 18.6507 22.8829C18.7882 22.7454 18.7882 22.5229 18.6507 22.3857C18.5136 22.2483 18.291 22.2483 18.1536 22.3857C18.0165 22.5229 18.0165 22.7454 18.1536 22.8829ZM19.6455 21.8883L23.0097 18.522C23.1469 18.3846 23.1469 18.162 23.0095 18.0247C22.8721 17.8875 22.6496 17.8877 22.5123 18.0248L19.1481 21.3912C19.0108 21.5285 19.0109 21.7511 19.1482 21.8884C19.2856 22.0256 19.5082 22.0256 19.6455 21.8883Z" fill="#EFE4DC"/>
<path d="M17.5378 20.516L14.5098 23.544C14.4749 23.579 14.4478 23.621 14.4302 23.6672C14.4296 23.6684 14.4291 23.6695 14.4286 23.6706C14.149 24.4267 13.3008 26.7204 12.9671 27.6226C12.9438 27.6857 12.9391 27.7542 12.9535 27.8199C12.9679 27.8856 13.0009 27.9457 13.0485 27.9933C13.0961 28.0408 13.1563 28.0737 13.222 28.088C13.2878 28.1023 13.3562 28.0975 13.4193 28.0742L17.3666 26.608C17.4139 26.5902 17.4569 26.5626 17.4929 26.5272L20.5206 23.4994L25.9188 28.9283C25.9515 28.9612 25.9904 28.9873 26.0332 29.0051C26.076 29.0229 26.1219 29.032 26.1682 29.0321H26.1685C26.2149 29.032 26.2608 29.0227 26.3036 29.0049C26.3464 28.987 26.3852 28.9608 26.4179 28.9279L29.8981 25.4153C30.0343 25.2779 30.0338 25.0562 29.897 24.9193L24.499 19.521L28.4737 15.5463C29.2982 14.7228 29.2988 13.3871 28.4738 12.5631C27.6497 11.7386 26.3153 11.7385 25.4906 12.5631L21.5155 16.5382C21.3117 16.3344 16.4227 11.4452 16.1154 11.1382C16.0498 11.0724 15.9607 11.0354 15.8678 11.0352C15.7748 11.0349 15.6856 11.0715 15.6196 11.137L12.1042 14.6167C12.0712 14.6494 12.0451 14.6882 12.0272 14.7311C12.0093 14.7739 12.0001 14.8198 12 14.8662C11.9999 14.9126 12.0091 14.9586 12.0269 15.0014C12.0447 15.0443 12.0708 15.0832 12.1037 15.1159L17.5378 20.516ZM21.7641 17.2841L21.7642 17.2839V17.2838L23.9565 15.0916L25.9452 17.0804L23.7533 19.2722C23.7533 19.2723 23.7533 19.2723 23.7531 19.2723V19.2725L17.2443 25.7813L15.2556 23.7925L21.7641 17.2841ZM25.1996 13.8485L27.1883 15.8373L26.4425 16.5832L24.4537 14.5945L25.1996 13.8485ZM15.1583 26.6782L14.3609 25.8809L14.8978 24.4292L16.6083 26.1397L15.1583 26.6782ZM14.0925 26.6068L14.4331 26.9475L13.8921 27.1484L14.0925 26.6068ZM24.8173 20.8338L23.3109 22.3399C23.1736 22.477 23.1736 22.6996 23.3109 22.837C23.4482 22.9743 23.6708 22.9743 23.8081 22.8371L25.3145 21.331L26.3792 22.3958L25.3701 23.4047C25.2329 23.542 25.2329 23.7646 25.3701 23.9019C25.5074 24.0393 25.73 24.0392 25.8673 23.9019L26.8764 22.8929L27.9413 23.9578L26.4351 25.4639C26.2977 25.6011 26.2977 25.8237 26.4351 25.9611C26.5722 26.0984 26.7949 26.0984 26.9322 25.9611L28.4385 24.4551L29.1524 25.1691C26.1837 28.1351 26.1678 28.1814 26.1678 28.1814L21.0178 23.0022L24.0019 20.0181L24.8173 20.8338ZM27.9767 13.0604C28.5263 13.6093 28.5265 14.4996 27.9766 15.049L27.6856 15.34L25.6968 13.3514L25.9879 13.0603C26.5374 12.5107 27.427 12.5102 27.9767 13.0604ZM16.6501 12.6672L15.144 14.1729C15.0068 14.3101 15.0068 14.5327 15.144 14.67C15.2814 14.8073 15.504 14.8073 15.6413 14.6702L17.1474 13.1643L18.2121 14.2292L17.2033 15.2377C17.066 15.375 17.066 15.5977 17.2031 15.735C17.3405 15.8722 17.5629 15.8723 17.7004 15.735L18.7094 14.7263L19.7032 15.7203L18.1974 17.2263C18.0602 17.3636 18.0602 17.5862 18.1974 17.7235C18.3347 17.8607 18.5574 17.8608 18.6947 17.7234L20.2005 16.2174L21.0184 17.0354L18.0349 20.0188L12.8508 14.8671C12.8508 14.8671 12.8995 14.8511 15.8657 11.8827L16.6501 12.6672Z" fill="#EFE4DC"/>
</g>
<defs>
<clipPath id="clip0_4146_1166">
<rect width="18" height="18" fill="white" transform="translate(12 11)"/>
</clipPath>
</defs>
</svg>
