<svg width="41" height="41" viewBox="0 0 41 41" fill="none" xmlns="http://www.w3.org/2000/svg">
<rect x="0.25" width="40" height="40.83" rx="20" fill="#312C2B"/>
<g clip-path="url(#clip0_4146_1178)">
<path d="M22.6929 19.6299L24.7276 17.6035L26.4013 17.3821C26.4948 17.3698 26.5837 17.3347 26.6605 17.2801C26.7373 17.2254 26.7994 17.1527 26.8416 17.0684L28.9386 12.8802C28.9931 12.7719 29.012 12.6492 28.9926 12.5295C28.9732 12.4099 28.9166 12.2994 28.8308 12.2138L27.8203 11.2039C27.7348 11.1185 27.6246 11.062 27.5052 11.0426C27.3859 11.0232 27.2634 11.0419 27.1553 11.0959L22.9611 13.1884C22.8766 13.2304 22.8036 13.2925 22.7488 13.3693C22.6939 13.4461 22.6588 13.5353 22.6465 13.6289L22.4252 15.3006L20.3908 17.328L19.8491 16.7862C19.6148 16.5519 19.5012 16.2175 19.5456 15.8897C19.7208 14.5578 19.2768 13.2468 18.3264 12.2926C17.3689 11.3353 15.9973 10.8827 14.6604 11.0817C14.3782 11.122 14.1466 11.3157 14.0561 11.5874C13.9654 11.8595 14.0346 12.1543 14.2367 12.3564L15.3759 13.4954C15.5388 13.6583 15.6283 13.8746 15.6279 14.1042C15.6276 14.332 15.5385 14.5457 15.3759 14.7072L14.6755 15.4076C14.5129 15.57 14.2973 15.6596 14.0681 15.6596H14.0666C13.8388 15.6592 13.6249 15.57 13.4629 15.4069L12.3206 14.2684C12.1209 14.0688 11.8296 13.9987 11.5604 14.0855C11.2899 14.1727 11.0932 14.4011 11.0475 14.6818L11.0463 14.6891C10.8469 16.029 11.2994 17.4005 12.2576 18.3587C13.2113 19.3081 14.5223 19.7521 15.8558 19.5768C16.1824 19.5327 16.5171 19.6464 16.7509 19.8803L17.2893 20.4189L16.7908 20.9156C16.2918 20.5261 15.5662 20.5609 15.1077 21.0191L11.8226 24.302C10.7461 25.3781 10.7252 27.1281 11.7763 28.2034C12.2964 28.7354 12.992 29.0308 13.7346 29.0352H13.7513C14.4879 29.0352 15.1802 28.7484 15.7022 28.2267L19.0092 24.9217C19.2498 24.6813 19.3823 24.3617 19.3823 24.0217C19.3823 23.7238 19.2807 23.4417 19.0938 23.2147L19.5901 22.7204L25.2639 28.396C25.6894 28.8213 26.2482 29.0339 26.8077 29.0339C27.3688 29.0339 27.9306 28.82 28.3583 28.3923C29.21 27.5406 29.212 26.1532 28.362 25.2983L22.6929 19.6299ZM17.4969 19.1346C17.0318 18.6696 16.3657 18.4441 15.7168 18.5311C14.7114 18.6634 13.7218 18.3281 13.0025 17.6122C12.4257 17.0352 12.0967 16.2875 12.0572 15.495L12.7164 16.152C13.0756 16.5138 13.5544 16.7135 14.0647 16.7143H14.0682C14.5789 16.7143 15.0594 16.5151 15.4211 16.1534L16.1204 15.4543C16.482 15.095 16.6817 14.6163 16.6827 14.106C16.6835 13.5939 16.4843 13.1123 16.1217 12.7497L15.4651 12.0932C16.2568 12.133 17.004 12.4619 17.5798 13.0376C18.2968 13.7576 18.6322 14.747 18.5001 15.7504C18.4122 16.4003 18.6377 17.0665 19.1033 17.5321L19.6437 18.0724L18.0364 19.6742L17.4969 19.1346ZM18.2636 24.1756L14.9566 27.4807C14.6338 27.8032 14.206 27.9805 13.7509 27.9805H13.7407C13.282 27.9777 12.8521 27.7951 12.5305 27.466C11.8815 26.8022 11.8985 25.7174 12.5683 25.0479L15.8532 21.7651C15.8957 21.7226 15.9518 21.7013 16.0077 21.7013C16.0635 21.7013 16.1193 21.7224 16.1619 21.7647L16.4249 22.0263L17.6066 23.2073L17.6048 23.2091L18.2636 23.8676C18.2839 23.8878 18.3 23.9118 18.3109 23.9383C18.3219 23.9647 18.3275 23.9931 18.3274 24.0217C18.3274 24.0553 18.3192 24.1201 18.2636 24.1756ZM18.3538 22.463L17.5441 21.6539L23.2847 15.9331C23.3746 15.8432 23.4325 15.7262 23.4494 15.6001L23.6587 14.0189L27.3183 12.1932L27.8414 12.7161L26.012 16.3697L24.4291 16.579C24.3038 16.5958 24.1875 16.6531 24.0978 16.7421L18.3538 22.463ZM27.6124 27.6465C27.1695 28.0894 26.4506 28.091 26.0098 27.6502L20.3374 21.976L21.9457 20.3742L27.615 26.0429C28.0553 26.4856 28.0541 27.205 27.6124 27.6465H27.6124Z" fill="#EFE4DC"/>
<path d="M15.8055 23.4865L13.3459 25.946C13.1399 26.1518 13.1399 26.4858 13.3459 26.6916C13.3948 26.7407 13.453 26.7796 13.517 26.8061C13.581 26.8327 13.6496 26.8462 13.7189 26.8461C13.8538 26.8461 13.9887 26.7947 14.0918 26.6917L16.5512 24.2322C16.7572 24.0264 16.7572 23.6925 16.5512 23.4865C16.3453 23.2805 16.0113 23.2805 15.8055 23.4865ZM24.1786 23.4849C23.9718 23.2799 23.6379 23.2814 23.4329 23.4882C23.2278 23.6951 23.2293 24.029 23.4361 24.234L26.4527 27.2233C26.5514 27.3213 26.6849 27.3763 26.8239 27.3761C26.9596 27.3761 27.0954 27.3239 27.1986 27.22C27.4036 27.013 27.4021 26.6792 27.1951 26.4741L24.1786 23.4849Z" fill="#EFE4DC"/>
</g>
<defs>
<clipPath id="clip0_4146_1178">
<rect width="18" height="18" fill="white" transform="translate(11 11)"/>
</clipPath>
</defs>
</svg>
