<svg width="41" height="41" viewBox="0 0 41 41" fill="none" xmlns="http://www.w3.org/2000/svg">
<rect x="0.25" width="40" height="40.83" rx="20" fill="#312C2B"/>
<path d="M19.9913 29L19.4033 28.7498C15.0371 26.9246 12.2129 22.676 12.2129 17.927V13.1L19.9913 11L27.7703 13.1V17.927C27.7703 22.676 24.9461 26.9246 20.5757 28.751L19.9913 29ZM13.4123 14.0186V17.927C13.4123 22.19 15.9473 26.0048 19.8701 27.644L19.9913 27.6956L20.1089 27.6458C22.0264 26.8466 23.6639 25.4966 24.814 23.7667C25.9642 22.0367 26.5754 20.0044 26.5703 17.927V14.0186L19.9913 12.2432L13.4123 14.0186Z" fill="#EFE4DC"/>
<path d="M19.4318 23.5996L15.1934 19.99L15.9716 19.0762L19.2866 21.8992L23.8688 16.3984L24.791 17.1664L19.4318 23.5996Z" fill="#EFE4DC"/>
</svg>
