<svg xmlns="http://www.w3.org/2000/svg" width="14" height="15" viewBox="0 0 14 15" fill="none">
  <path d="M1.43197 5.13119C1.59606 4.96715 1.81858 4.875 2.05059 4.875C2.28261 4.875 2.50513 4.96715 2.66922 5.13119L7.00047 9.46244L11.3317 5.13119C11.4967 4.9718 11.7178 4.8836 11.9472 4.8856C12.1766 4.88759 12.3961 4.97961 12.5583 5.14185C12.7205 5.30408 12.8126 5.52354 12.8146 5.75296C12.8166 5.98238 12.7284 6.20341 12.569 6.36844L7.61909 11.3183C7.45501 11.4824 7.23249 11.5745 7.00047 11.5745C6.76845 11.5745 6.54593 11.4824 6.38184 11.3183L1.43197 6.36844C1.26793 6.20435 1.17578 5.98183 1.17578 5.74981C1.17578 5.51779 1.26793 5.29528 1.43197 5.13119Z" fill="#FDE4C8"/>
</svg>