<svg xmlns="http://www.w3.org/2000/svg" width="32" height="33" viewBox="0 0 32 33" fill="none">
  <path fill-rule="evenodd" clip-rule="evenodd" d="M17.642 24.1294C17.8035 24.2641 17.9898 24.3656 18.1905 24.4282C18.3912 24.4908 18.6023 24.5132 18.8117 24.4942C19.021 24.4751 19.2246 24.4151 19.4107 24.3173C19.5968 24.2196 19.7619 24.0861 19.8964 23.9246L25.2292 17.5246C25.3697 17.364 25.4766 17.177 25.5438 16.9745C25.6109 16.7719 25.6368 16.5581 25.6201 16.3454C25.6033 16.1327 25.5442 15.9255 25.4461 15.736C25.3481 15.5465 25.2132 15.3785 25.0493 15.2419C24.8854 15.1054 24.6958 15.0029 24.4918 14.9407C24.2877 14.8785 24.0733 14.8577 23.861 14.8795C23.6488 14.9014 23.4431 14.9655 23.256 15.068C23.0689 15.1705 22.9042 15.3095 22.7716 15.4766L17.4372 21.8766C17.1658 22.2025 17.0348 22.6229 17.0732 23.0454C17.1116 23.4678 17.3162 23.8577 17.642 24.1294Z" fill="#FDE7CD"/>
  <path fill-rule="evenodd" clip-rule="evenodd" d="M17.642 8.87134C17.3162 9.14299 17.1116 9.53289 17.0732 9.95534C17.0348 10.3778 17.1658 10.7982 17.4372 11.1241L22.7716 17.5241C22.9042 17.6913 23.0689 17.8302 23.256 17.9327C23.4431 18.0353 23.6488 18.0993 23.861 18.1212C24.0733 18.1431 24.2877 18.1223 24.4918 18.06C24.6958 17.9978 24.8854 17.8954 25.0493 17.7588C25.2132 17.6222 25.3481 17.4542 25.4461 17.2647C25.5442 17.0752 25.6033 16.868 25.6201 16.6554C25.6368 16.4427 25.6109 16.2288 25.5438 16.0263C25.4766 15.8238 25.3697 15.6367 25.2292 15.4761L19.8964 9.07614C19.7619 8.91459 19.5968 8.78114 19.4107 8.68341C19.2246 8.58567 19.021 8.52558 18.8117 8.50656C18.6023 8.48754 18.3912 8.50997 18.1905 8.57256C17.9898 8.63515 17.8035 8.73668 17.642 8.87134Z" fill="#FDE7CD"/>
  <path fill-rule="evenodd" clip-rule="evenodd" d="M22.3984 16.5004C22.3984 16.076 22.2299 15.6691 21.9298 15.369C21.6297 15.069 21.2228 14.9004 20.7984 14.9004H7.99844C7.57409 14.9004 7.16712 15.069 6.86707 15.369C6.56701 15.6691 6.39844 16.076 6.39844 16.5004C6.39844 16.9247 6.56701 17.3317 6.86707 17.6318C7.16712 17.9318 7.57409 18.1004 7.99844 18.1004H20.7984C21.2228 18.1004 21.6297 17.9318 21.9298 17.6318C22.2299 17.3317 22.3984 16.9247 22.3984 16.5004Z" fill="#FDE7CD"/>
</svg>