<svg xmlns="http://www.w3.org/2000/svg" width="22" height="22" viewBox="0 0 22 22" fill="none">
  <path d="M5.99805 0.536133V0.537109C6.60285 0.532328 7.18876 0.74626 7.64746 1.14062C8.04998 1.48679 8.33053 1.95082 8.45117 2.46387L8.49316 2.68652L8.49414 2.69043C8.61583 3.61311 8.84162 4.51966 9.16699 5.3916H9.16602C9.33379 5.83856 9.37098 6.32408 9.27148 6.79102C9.17181 7.2584 8.93951 7.68751 8.60352 8.02734L8.60156 8.03027L8.60059 8.0293L7.60547 9.02539C8.91088 11.1959 10.728 13.0129 12.8984 14.3184L13.8965 13.3203C14.2363 12.9844 14.6655 12.753 15.1328 12.6533C15.6003 12.5536 16.0868 12.5896 16.5342 12.7578H16.5332C17.405 13.0831 18.3108 13.309 19.2334 13.4307H19.2383C19.8452 13.5164 20.3996 13.8225 20.7959 14.29C21.1896 14.7547 21.3997 15.3474 21.3877 15.9561V18.9541C21.3891 19.3022 21.3182 19.6469 21.1787 19.9658C21.0392 20.2848 20.8347 20.5713 20.5781 20.8066C20.3217 21.0419 20.0191 21.2215 19.6895 21.333C19.3597 21.4445 19.0098 21.4854 18.6631 21.4541L18.6543 21.4531C15.5007 21.1105 12.4714 20.0331 9.80957 18.3076C7.33268 16.7336 5.23258 14.6339 3.6582 12.1572C1.92576 9.48269 0.847248 6.43736 0.510742 3.26855L0.509766 3.26172V3.26074C0.478616 2.91525 0.520133 2.56704 0.630859 2.23828C0.741634 1.90939 0.91935 1.60691 1.15332 1.35059C1.38731 1.09425 1.67275 0.889258 1.99023 0.749023C2.3076 0.608912 2.65113 0.53646 2.99805 0.536133H5.99805Z" stroke="#F4CEA6" stroke-linecap="round" stroke-linejoin="round"/>
</svg>