<svg xmlns="http://www.w3.org/2000/svg" width="70" height="40" viewBox="0 0 70 40" fill="none">
  <g clip-path="url(#clip0_4125_3211)">
    <path fill-rule="evenodd" clip-rule="evenodd" d="M17.6769 39.9377V38.4533H18.5539V39.9377C18.5534 39.9447 18.5544 39.9518 18.5569 39.9584C18.5593 39.965 18.5632 39.971 18.5682 39.976C18.5732 39.981 18.5792 39.9848 18.5858 39.9873C18.5924 39.9898 18.5995 39.9908 18.6066 39.9904H19.1076C19.1146 39.9908 19.1217 39.9898 19.1283 39.9873C19.1349 39.9848 19.1409 39.981 19.1459 39.976C19.1509 39.971 19.1548 39.965 19.1573 39.9584C19.1598 39.9518 19.1608 39.9447 19.1603 39.9377V36.3583C19.1608 36.3513 19.1598 36.3442 19.1573 36.3376C19.1548 36.331 19.1509 36.325 19.1459 36.32C19.1409 36.315 19.1349 36.3111 19.1283 36.3087C19.1217 36.3062 19.1146 36.3052 19.1076 36.3056H18.6066C18.5995 36.3052 18.5924 36.3062 18.5858 36.3087C18.5792 36.3111 18.5732 36.315 18.5682 36.32C18.5632 36.325 18.5593 36.331 18.5569 36.3376C18.5544 36.3442 18.5534 36.3513 18.5539 36.3583V37.848H17.6769V36.3583C17.6774 36.3513 17.6763 36.3442 17.6738 36.3377C17.6713 36.3311 17.6674 36.3251 17.6624 36.3202C17.6574 36.3152 17.6515 36.3113 17.6449 36.3088C17.6383 36.3063 17.6312 36.3052 17.6242 36.3056H17.1173C17.1102 36.3052 17.1032 36.3063 17.0966 36.3088C17.09 36.3113 17.084 36.3152 17.079 36.3202C17.0741 36.3251 17.0702 36.3311 17.0677 36.3377C17.0652 36.3442 17.0641 36.3513 17.0645 36.3583V39.9377C17.0641 39.9447 17.0652 39.9517 17.0677 39.9583C17.0702 39.9649 17.0741 39.9709 17.079 39.9758C17.084 39.9808 17.09 39.9847 17.0966 39.9872C17.1032 39.9897 17.1102 39.9908 17.1173 39.9904H17.6242C17.6312 39.9908 17.6383 39.9897 17.6449 39.9872C17.6515 39.9847 17.6574 39.9808 17.6624 39.9758C17.6674 39.9709 17.6713 39.9649 17.6738 39.9583C17.6763 39.9517 17.6774 39.9447 17.6769 39.9377ZM21.1293 40.0009C21.2618 40.0009 21.3929 39.9749 21.5153 39.9244C21.6377 39.8739 21.7489 39.7999 21.8426 39.7065C21.9363 39.6131 22.0106 39.5023 22.0613 39.3803C22.112 39.2583 22.1381 39.1275 22.1381 38.9954V37.3062C22.1381 37.0396 22.0318 36.7839 21.8427 36.5954C21.6536 36.4069 21.3972 36.301 21.1297 36.301C20.8623 36.301 20.6058 36.4069 20.4167 36.5954C20.2276 36.7839 20.1214 37.0396 20.1214 37.3062V38.9959C20.1209 39.128 20.1467 39.2589 20.1972 39.381C20.2476 39.5031 20.3219 39.6141 20.4156 39.7075C20.5092 39.8009 20.6205 39.8749 20.743 39.9253C20.8655 39.9756 20.9968 40.0013 21.1293 40.0009ZM20.7015 38.9954V37.3062C20.7015 37.1931 20.7466 37.0846 20.8268 37.0046C20.907 36.9246 21.0158 36.8797 21.1293 36.8797C21.2428 36.8797 21.3516 36.9246 21.4318 37.0046C21.5121 37.0846 21.5571 37.1931 21.5571 37.3062V38.9959C21.5571 39.109 21.5119 39.2175 21.4317 39.2974C21.3514 39.3774 21.2426 39.4222 21.1291 39.4222C21.0156 39.4221 20.9068 39.3771 20.8266 39.2971C20.7464 39.2171 20.7014 39.1086 20.7015 38.9954ZM23.1621 39.9904H24.9253C24.9323 39.9908 24.9394 39.9897 24.946 39.9872C24.9526 39.9847 24.9585 39.9808 24.9635 39.9758C24.9685 39.9709 24.9724 39.9649 24.9749 39.9583C24.9774 39.9517 24.9785 39.9447 24.978 39.9377V39.4324C24.9785 39.4254 24.9774 39.4184 24.9749 39.4118C24.9724 39.4052 24.9685 39.3992 24.9635 39.3943C24.9585 39.3893 24.9526 39.3854 24.946 39.3829C24.9394 39.3804 24.9323 39.3793 24.9253 39.3797H23.7218V36.3583C23.7222 36.3513 23.7211 36.3442 23.7186 36.3377C23.7161 36.3311 23.7123 36.3251 23.7073 36.3202C23.7023 36.3152 23.6963 36.3113 23.6897 36.3088C23.6831 36.3063 23.6761 36.3052 23.669 36.3056H23.1621C23.1551 36.3052 23.148 36.3062 23.1414 36.3087C23.1347 36.3111 23.1287 36.315 23.1237 36.32C23.1187 36.325 23.1149 36.331 23.1124 36.3376C23.1099 36.3442 23.1089 36.3513 23.1094 36.3583V39.9377C23.1089 39.9447 23.1099 39.9518 23.1124 39.9584C23.1149 39.965 23.1187 39.971 23.1237 39.976C23.1287 39.981 23.1347 39.9848 23.1414 39.9873C23.148 39.9898 23.1551 39.9908 23.1621 39.9904ZM26.5515 39.9377V36.3583C26.5519 36.3512 26.5508 36.3441 26.5482 36.3375C26.5457 36.3309 26.5417 36.3249 26.5367 36.3199C26.5316 36.3149 26.5255 36.3111 26.5188 36.3086C26.5122 36.3062 26.5051 36.3051 26.498 36.3056H26.0021C25.995 36.3052 25.988 36.3063 25.9814 36.3088C25.9748 36.3113 25.9688 36.3152 25.9639 36.3202C25.9589 36.3251 25.955 36.3311 25.9525 36.3377C25.95 36.3442 25.9489 36.3513 25.9494 36.3583V39.9377C25.9489 39.9447 25.95 39.9517 25.9525 39.9583C25.955 39.9649 25.9589 39.9709 25.9639 39.9758C25.9688 39.9808 25.9748 39.9847 25.9814 39.9872C25.988 39.9897 25.995 39.9908 26.0021 39.9904H26.498C26.5051 39.9909 26.5122 39.9898 26.5188 39.9874C26.5255 39.9849 26.5316 39.9811 26.5367 39.9761C26.5417 39.9711 26.5457 39.9651 26.5482 39.9585C26.5508 39.9519 26.5519 39.9448 26.5515 39.9377ZM27.6751 39.9956H28.6686C28.8065 39.9957 28.9432 39.9686 29.0706 39.916C29.1981 39.8633 29.3139 39.7862 29.4115 39.6889C29.509 39.5916 29.5864 39.4761 29.6392 39.349C29.6919 39.2219 29.719 39.0857 29.719 38.9481V37.3531C29.719 37.2156 29.6919 37.0793 29.6392 36.9522C29.5864 36.8251 29.509 36.7096 29.4115 36.6124C29.3139 36.5151 29.1981 36.4379 29.0706 36.3853C28.9432 36.3327 28.8065 36.3056 28.6686 36.3056H27.6751C27.6681 36.3052 27.661 36.3063 27.6544 36.3088C27.6479 36.3113 27.6419 36.3152 27.6369 36.3202C27.6319 36.3251 27.628 36.3311 27.6255 36.3377C27.623 36.3442 27.622 36.3513 27.6224 36.3583V39.943C27.622 39.95 27.623 39.957 27.6255 39.9636C27.628 39.9702 27.6319 39.9761 27.6369 39.9811C27.6419 39.9861 27.6479 39.9899 27.6544 39.9924C27.661 39.9949 27.6681 39.996 27.6751 39.9956ZM28.2297 39.3955V36.9057H28.6686C28.7275 36.9057 28.7858 36.9173 28.8402 36.9398C28.8946 36.9623 28.9441 36.9952 28.9857 37.0368C29.0273 37.0783 29.0603 37.1277 29.0828 37.1819C29.1053 37.2362 29.1169 37.2944 29.1168 37.3531V38.9481C29.1169 39.0069 29.1053 39.065 29.0828 39.1193C29.0603 39.1736 29.0273 39.2229 28.9857 39.2645C28.9441 39.306 28.8946 39.339 28.8402 39.3615C28.7858 39.3839 28.7275 39.3955 28.6686 39.3955H28.2297ZM31.1232 39.9482L31.2125 39.4798H31.8777L31.9678 39.9482C31.9716 39.9596 31.9785 39.9697 31.9879 39.9772C31.9972 39.9847 32.0086 39.9894 32.0206 39.9906H32.5224C32.5307 39.9905 32.5389 39.9885 32.5463 39.9847C32.5537 39.981 32.5602 39.9757 32.5653 39.9691C32.5704 39.9625 32.5739 39.9549 32.5756 39.9468C32.5773 39.9386 32.5771 39.9302 32.5751 39.9222L31.8564 36.348C31.8527 36.3366 31.8457 36.3266 31.8363 36.319C31.827 36.3115 31.8156 36.3069 31.8037 36.3056H31.2865C31.2746 36.3069 31.2632 36.3115 31.2539 36.319C31.2445 36.3266 31.2375 36.3366 31.2338 36.348L30.5159 39.9222C30.5138 39.9302 30.5135 39.9387 30.5151 39.9469C30.5168 39.9551 30.5203 39.9628 30.5254 39.9694C30.5305 39.976 30.537 39.9814 30.5445 39.985C30.552 39.9887 30.5603 39.9906 30.5687 39.9906H31.0696C31.0817 39.9893 31.0931 39.9846 31.1026 39.9771C31.112 39.9696 31.1192 39.9596 31.1232 39.9482ZM31.5451 37.8164L31.756 38.8744H31.3342L31.5451 37.8164ZM34.3221 36.3372L33.8782 37.6848L33.4512 36.3425C33.4482 36.3321 33.442 36.3229 33.4334 36.3163C33.4249 36.3097 33.4144 36.3059 33.4035 36.3056H32.923C32.9133 36.3054 32.9038 36.3074 32.8951 36.3117C32.8865 36.3159 32.879 36.3222 32.8733 36.3299C32.8676 36.3377 32.8639 36.3467 32.8625 36.3563C32.861 36.3658 32.862 36.3755 32.8652 36.3846L33.5779 38.6062V39.9375C33.5774 39.9446 33.5784 39.9516 33.5809 39.9582C33.5834 39.9648 33.5873 39.9708 33.5923 39.9758C33.5973 39.9808 33.6033 39.9847 33.6099 39.9872C33.6165 39.9896 33.6236 39.9907 33.6306 39.9902H34.1163C34.1233 39.9906 34.1304 39.9895 34.137 39.987C34.1436 39.9845 34.1495 39.9806 34.1545 39.9757C34.1595 39.9707 34.1634 39.9647 34.1659 39.9582C34.1684 39.9516 34.1695 39.9446 34.169 39.9375V38.6062L34.9082 36.3846C34.9117 36.3755 34.9129 36.3657 34.9116 36.356C34.9104 36.3464 34.9067 36.3372 34.9009 36.3293C34.8952 36.3214 34.8875 36.3151 34.8787 36.311C34.8698 36.3069 34.8601 36.305 34.8503 36.3056H34.3698C34.3594 36.3048 34.3491 36.3074 34.3405 36.3131C34.3318 36.3189 34.3254 36.3273 34.3221 36.3372ZM37.5108 39.9904H39.274C39.2811 39.9908 39.2881 39.9897 39.2947 39.9872C39.3013 39.9847 39.3073 39.9808 39.3122 39.9758C39.3172 39.9709 39.3211 39.9649 39.3236 39.9583C39.3261 39.9517 39.3272 39.9447 39.3268 39.9377V39.4324C39.3272 39.4254 39.3261 39.4184 39.3236 39.4118C39.3211 39.4052 39.3172 39.3992 39.3122 39.3943C39.3073 39.3893 39.3013 39.3854 39.2947 39.3829C39.2881 39.3804 39.2811 39.3793 39.274 39.3797H38.0705V36.3583C38.0709 36.3512 38.0698 36.3441 38.0672 36.3375C38.0646 36.3309 38.0607 36.3249 38.0556 36.3199C38.0505 36.3149 38.0445 36.3111 38.0378 36.3086C38.0311 36.3062 38.024 36.3051 38.0169 36.3056H37.5108C37.5037 36.3051 37.4966 36.3062 37.4899 36.3086C37.4833 36.3111 37.4772 36.3149 37.4721 36.3199C37.4671 36.3249 37.4631 36.3309 37.4606 36.3375C37.458 36.3441 37.4569 36.3512 37.4573 36.3583V39.9377C37.4569 39.9448 37.458 39.9519 37.4606 39.9585C37.4631 39.9651 37.4671 39.9711 37.4721 39.9761C37.4772 39.9811 37.4833 39.9849 37.4899 39.9874C37.4966 39.9898 37.5037 39.9909 37.5108 39.9904ZM40.8994 39.9377V36.3583C40.8999 36.3513 40.8989 36.3442 40.8964 36.3376C40.8939 36.331 40.8901 36.325 40.8851 36.32C40.8801 36.315 40.8741 36.3111 40.8674 36.3087C40.8608 36.3062 40.8537 36.3052 40.8467 36.3056H40.3508C40.3438 36.3052 40.3367 36.3063 40.3301 36.3088C40.3236 36.3113 40.3176 36.3152 40.3126 36.3202C40.3076 36.3251 40.3037 36.3311 40.3012 36.3377C40.2987 36.3442 40.2977 36.3513 40.2981 36.3583V39.9377C40.2977 39.9447 40.2987 39.9517 40.3012 39.9583C40.3037 39.9649 40.3076 39.9709 40.3126 39.9758C40.3176 39.9808 40.3236 39.9847 40.3301 39.9872C40.3367 39.9897 40.3438 39.9908 40.3508 39.9904H40.8467C40.8537 39.9908 40.8608 39.9898 40.8674 39.9873C40.8741 39.9848 40.8801 39.981 40.8851 39.976C40.8901 39.971 40.8939 39.965 40.8964 39.9584C40.8989 39.9518 40.8999 39.9447 40.8994 39.9377ZM42.9535 39.9956C43.2314 39.9961 43.4981 39.8866 43.695 39.6912C43.892 39.4958 44.0031 39.2304 44.0039 38.9534V37.9006C44.0043 37.8935 44.0032 37.8865 44.0007 37.88C43.9982 37.8734 43.9944 37.8674 43.9894 37.8625C43.9844 37.8575 43.9784 37.8537 43.9718 37.8512C43.9652 37.8487 43.9582 37.8476 43.9512 37.848H43.0062C42.9992 37.8476 42.9922 37.8487 42.9856 37.8512C42.979 37.8537 42.973 37.8575 42.968 37.8625C42.963 37.8674 42.9592 37.8734 42.9567 37.88C42.9542 37.8865 42.9531 37.8935 42.9535 37.9006V38.3954C42.9531 38.4024 42.9542 38.4095 42.9567 38.416C42.9592 38.4226 42.963 38.4285 42.968 38.4335C42.973 38.4385 42.979 38.4423 42.9856 38.4448C42.9922 38.4473 42.9992 38.4484 43.0062 38.448H43.4017V38.9534C43.4017 39.0713 43.3547 39.1845 43.2711 39.2679C43.1874 39.3513 43.0739 39.3981 42.9556 39.3981C42.8373 39.3981 42.7238 39.3513 42.6402 39.2679C42.5565 39.1845 42.5095 39.0713 42.5095 38.9534V37.3531C42.51 37.2407 42.5533 37.1326 42.6306 37.0507C42.7079 36.9688 42.8134 36.9192 42.926 36.9119C43.0385 36.9045 43.1497 36.94 43.237 37.0111C43.3244 37.0823 43.3814 37.1838 43.3966 37.2952C43.3986 37.308 43.4049 37.3197 43.4145 37.3283C43.4241 37.3369 43.4364 37.342 43.4494 37.3426H43.9461C43.9614 37.3424 43.976 37.3363 43.9869 37.3254C43.9977 37.3146 44.0038 37.3 44.0039 37.2847C43.9862 37.0137 43.8636 36.7602 43.6618 36.5778C43.46 36.3954 43.195 36.2984 42.9228 36.3073C42.6506 36.3162 42.3925 36.4303 42.2032 36.6255C42.0138 36.8206 41.908 37.0816 41.9082 37.3531V38.9534C41.9087 39.2296 42.019 39.4944 42.2149 39.6897C42.4109 39.885 42.6764 39.995 42.9535 39.9956ZM45.5715 39.9377V38.4533H46.4484V39.9377C46.448 39.9447 46.449 39.9517 46.4515 39.9583C46.454 39.9649 46.4579 39.9709 46.4629 39.9758C46.4679 39.9808 46.4739 39.9847 46.4804 39.9872C46.487 39.9897 46.4941 39.9908 46.5011 39.9904H47.0029C47.01 39.9908 47.017 39.9897 47.0236 39.9872C47.0302 39.9847 47.0362 39.9808 47.0412 39.9758C47.0461 39.9709 47.05 39.9649 47.0525 39.9583C47.055 39.9517 47.0561 39.9447 47.0557 39.9377V36.3583C47.0561 36.3513 47.055 36.3442 47.0525 36.3377C47.05 36.3311 47.0461 36.3251 47.0412 36.3202C47.0362 36.3152 47.0302 36.3113 47.0236 36.3088C47.017 36.3063 47.01 36.3052 47.0029 36.3056H46.5011C46.4941 36.3052 46.487 36.3063 46.4804 36.3088C46.4739 36.3113 46.4679 36.3152 46.4629 36.3202C46.4579 36.3251 46.454 36.3311 46.4515 36.3377C46.449 36.3442 46.448 36.3513 46.4484 36.3583V37.848H45.5715V36.3583C45.5719 36.3513 45.5708 36.3442 45.5683 36.3377C45.5658 36.3311 45.5619 36.3251 45.557 36.3202C45.552 36.3152 45.546 36.3113 45.5394 36.3088C45.5328 36.3063 45.5258 36.3052 45.5187 36.3056H45.0118C45.0048 36.3052 44.9977 36.3063 44.9911 36.3088C44.9845 36.3113 44.9786 36.3152 44.9736 36.3202C44.9686 36.3251 44.9647 36.3311 44.9622 36.3377C44.9597 36.3442 44.9587 36.3513 44.9591 36.3583V39.9377C44.9587 39.9447 44.9597 39.9517 44.9622 39.9583C44.9647 39.9649 44.9686 39.9709 44.9736 39.9758C44.9786 39.9808 44.9845 39.9847 44.9911 39.9872C44.9977 39.9897 45.0048 39.9908 45.0118 39.9904H45.5187C45.5258 39.9908 45.5328 39.9897 45.5394 39.9872C45.546 39.9847 45.552 39.9808 45.557 39.9758C45.5619 39.9709 45.5658 39.9649 45.5683 39.9583C45.5708 39.9517 45.5719 39.9447 45.5715 39.9377ZM49.922 36.3004H47.9317C47.9246 36.2999 47.9175 36.3009 47.9108 36.3034C47.9042 36.3058 47.8981 36.3097 47.893 36.3147C47.888 36.3196 47.884 36.3256 47.8814 36.3322C47.8789 36.3389 47.8778 36.3459 47.8781 36.353V36.8583C47.8778 36.8654 47.8789 36.8725 47.8814 36.8791C47.884 36.8857 47.888 36.8917 47.893 36.8967C47.8981 36.9017 47.9042 36.9055 47.9108 36.908C47.9175 36.9105 47.9246 36.9115 47.9317 36.911H48.602V39.9324C48.6015 39.9395 48.6026 39.9465 48.6051 39.9531C48.6076 39.9596 48.6115 39.9656 48.6165 39.9706C48.6215 39.9756 48.6274 39.9794 48.634 39.9819C48.6406 39.9844 48.6477 39.9855 48.6547 39.9851H49.1616C49.1687 39.9855 49.1757 39.9844 49.1823 39.9819C49.1889 39.9794 49.1949 39.9756 49.1999 39.9706C49.2048 39.9656 49.2087 39.9596 49.2112 39.9531C49.2137 39.9465 49.2148 39.9395 49.2144 39.9324V36.911H49.922C49.9291 36.9114 49.9361 36.9103 49.9427 36.9078C49.9493 36.9053 49.9553 36.9014 49.9602 36.8965C49.9652 36.8915 49.9691 36.8855 49.9716 36.8789C49.9741 36.8724 49.9752 36.8653 49.9748 36.8583V36.353C49.9752 36.346 49.9741 36.339 49.9716 36.3324C49.9691 36.3258 49.9652 36.3199 49.9602 36.3149C49.9553 36.3099 49.9493 36.3061 49.9427 36.3035C49.9361 36.301 49.9291 36.3 49.922 36.3004ZM51.8961 37.7796C51.3365 37.5845 51.3526 37.3373 51.3526 37.2847C51.3525 37.231 51.3634 37.1779 51.3846 37.1286C51.4058 37.0793 51.4368 37.0349 51.4758 36.9979C51.5148 36.961 51.561 36.9323 51.6115 36.9138C51.6619 36.8952 51.7157 36.8871 51.7694 36.89C51.8709 36.881 51.9718 36.9126 52.05 36.9778C52.1281 37.043 52.1771 37.1364 52.1862 37.2376C52.1883 37.2504 52.1948 37.2621 52.2046 37.2708C52.2143 37.2794 52.2267 37.2844 52.2397 37.2849H52.7994C52.8067 37.2854 52.814 37.2845 52.8209 37.282C52.8278 37.2796 52.8342 37.2759 52.8396 37.271C52.845 37.2661 52.8494 37.2601 52.8524 37.2535C52.8554 37.2468 52.8571 37.2397 52.8572 37.2324C52.8309 36.8218 52.5247 36.2269 51.7694 36.2269C51.618 36.2229 51.4675 36.2514 51.3281 36.3104C51.1887 36.3695 51.0636 36.4577 50.9614 36.5691C50.7872 36.7633 50.6896 37.0139 50.6866 37.2744C50.6866 37.7903 51.0303 38.1745 51.6529 38.3957C52.2074 38.5907 52.1972 38.8378 52.1972 38.8905C52.1969 38.9441 52.1858 38.9971 52.1644 39.0462C52.143 39.0954 52.1119 39.1398 52.0729 39.1767C52.0339 39.2136 51.9878 39.2422 51.9374 39.2609C51.887 39.2795 51.8333 39.2878 51.7796 39.2853C51.6786 39.2895 51.5797 39.2564 51.5018 39.1922C51.4239 39.128 51.3726 39.0373 51.3577 38.9376C51.3558 38.9249 51.3495 38.9132 51.3399 38.9045C51.3303 38.8959 51.3179 38.8908 51.305 38.8902H50.7454C50.7376 38.8898 50.7298 38.8911 50.7226 38.8938C50.7153 38.8966 50.7087 38.9008 50.7032 38.9063C50.6977 38.9117 50.6934 38.9183 50.6905 38.9255C50.6877 38.9327 50.6863 38.9404 50.6866 38.9481C50.7049 39.1679 50.7858 39.378 50.9197 39.5535C51.0215 39.6824 51.1526 39.7853 51.3021 39.8539C51.4515 39.9225 51.6152 39.9548 51.7796 39.9482C51.931 39.9525 52.0816 39.9241 52.2211 39.865C52.3605 39.806 52.4855 39.7177 52.5876 39.6061C52.7618 39.4118 52.8594 39.1612 52.8624 38.9007C52.8624 38.3848 52.5136 38.0006 51.8961 37.7796Z" fill="#EFC7A0"/>
    <path fill-rule="evenodd" clip-rule="evenodd" d="M62.9405 24.5277L61.2394 32.329L58.7728 31.8202L60.3888 24.2733L60.1337 7.05969L62.8554 7.65326C62.8554 7.65326 62.3451 18.6801 62.3451 19.5247C62.3451 19.9911 62.7287 20.1109 62.8554 19.7791L67.2783 8.50122L70 9.17959L62.9405 24.5277ZM53.7546 28.6827L53.4994 30.8874L46.695 30.1243L49.4168 5.78774L52.0535 6.04213L49.5869 28.0892L49.842 28.3435L53.7546 28.6827ZM39.6355 29.7003L32.5759 29.6155L32.9162 5.10938L39.9757 5.19417L41.7618 7.05969L41.5067 27.9196L39.6355 29.7003ZM38.2746 7.31408H35.6379L35.4678 7.48367L35.2126 27.326L35.3827 27.4956H38.0194L38.87 26.6476L39.1252 8.24684L38.2746 7.31408ZM20.158 30.3787L18.2017 28.7675L16.3305 7.99245L16.4496 7.84829C16.5593 7.79775 16.6776 7.76851 16.7983 7.76214C17.153 7.76214 17.7501 7.53489 18.0469 7.53489C18.3437 7.53489 18.3293 7.57618 18.7426 7.57618C19.156 7.57618 19.5787 7.4729 19.8679 7.4729C20.1571 7.4729 20.1495 7.58729 21.1778 7.59687C23.1374 7.61502 22.5778 7.74298 23.5117 8.03069C23.8808 8.14457 24.3427 8.14474 24.6378 8.25311C25.0256 8.3954 25.1498 8.60196 25.3897 8.65691L27.1324 28.0044L25.5164 29.9547L20.158 30.3787ZM22.7947 8.67082L21.8591 7.82285L19.8177 7.99245L19.0522 8.92521L20.6683 27.326L21.6039 28.0892L23.6452 27.9196L24.4107 27.0716L22.7947 8.67082ZM18.5598 5.98396L23.305 5.53336L25.2612 7.22928L25.2655 7.28118C23.9778 6.97557 20.977 6.41914 18.5598 5.98396ZM6.63426 32.753L4.5079 31.3962L0 10.9603L1.36087 8.84041L6.29405 7.73806L8.50547 9.17959L9.52612 14.013L6.88943 14.6066L6.12394 10.9603L5.10328 10.2819L3.5723 10.6211L2.89186 11.6387L6.80437 29.6155L7.73998 30.2939L9.44107 29.9547L10.0365 28.9371C10.0365 28.9371 8.78955 23.0464 8.67558 22.4926C8.5616 21.9388 8.27412 22.0245 8.08019 22.0686L6.97448 22.2382L6.46416 20.0335L10.6318 19.1008L12.9283 29.6155L11.4824 31.7354L6.63426 32.753Z" fill="#FAFAEB"/>
    <path fill-rule="evenodd" clip-rule="evenodd" d="M17.9243 3.62267C17.7925 3.90555 17.3927 4.14392 17.9855 4.13433C18.5784 4.12475 18.808 4.07294 19.03 4.07294C19.252 4.07294 19.9001 4.19573 20.1961 4.19573C20.4921 4.19573 20.5908 4.17131 20.851 4.17529C21.8547 4.19039 22.0384 4.6794 23.4095 4.60504C24.5152 4.54517 24.6402 5.17818 25.2314 5.17818C25.4908 5.17818 25.5384 4.91081 25.5384 4.72791C25.5384 4.545 25.4721 3.82508 24.6581 3.2338C24.4284 3.06717 24.1937 2.97042 24.0125 2.85815C23.6876 2.65642 23.4911 2.49539 23.4911 2.43561C23.4897 2.4218 23.4914 2.40784 23.4961 2.39475C23.5007 2.38167 23.5083 2.36979 23.5181 2.35998C23.528 2.35017 23.5399 2.34269 23.5531 2.33806C23.5662 2.33344 23.5802 2.3318 23.5941 2.33326C23.7157 2.33046 24.232 2.72214 24.5969 2.72214C24.6175 2.72209 24.6378 2.71764 24.6566 2.7091C24.6753 2.70055 24.692 2.68811 24.7056 2.6726C24.7191 2.6571 24.7292 2.63888 24.7351 2.61918C24.7409 2.59949 24.7425 2.57876 24.7397 2.5584C24.7397 2.40695 24.5152 2.16655 24.5152 2.0263C24.5139 2.01798 24.5146 2.00947 24.5173 2.00147C24.5199 1.99346 24.5243 1.98618 24.5303 1.98021C24.5363 1.97424 24.5435 1.96975 24.5515 1.96709C24.5596 1.96443 24.5681 1.96368 24.5764 1.96491C24.7761 2.07828 24.9501 2.23154 25.0876 2.41509C25.2348 2.63124 25.4491 3.1713 25.9067 3.78642C26.3643 4.40153 27.3467 5.25042 27.5032 5.5261C27.5619 5.62946 27.5295 5.73071 27.6869 5.73071C27.7847 5.73071 28.1377 5.6482 28.1377 5.28044C28.1377 4.87681 28.0348 4.40034 27.5644 3.64311C27.0941 2.88588 26.7981 2.34081 26.582 1.94439C26.366 1.54796 26.1602 1.1473 25.6405 1.04385C24.8894 0.894016 24.1699 0.670747 23.5941 0.368449C23.0182 0.0661501 22.5887 -0.000923217 22.2638 9.5419e-06C21.1105 0.00340139 19.1738 0.941841 17.9243 3.62267Z" fill="#E6544B"/>
    <path fill-rule="evenodd" clip-rule="evenodd" d="M16.6144 5.64873C16.6246 6.02743 16.2461 6.13682 16.2461 6.79483C16.2461 7.18201 16.4434 7.36789 16.7989 7.36789C17.1545 7.36789 17.7507 7.14275 18.0476 7.14275C18.3444 7.14275 18.3299 7.18371 18.7433 7.18371C19.1567 7.18371 19.5794 7.08136 19.8686 7.08136C20.1578 7.08136 20.1501 7.19473 21.1784 7.20415C23.1381 7.22212 22.5784 7.34889 23.5123 7.63398C23.8815 7.74684 24.3433 7.74701 24.6384 7.85445C25.0892 8.01827 25.1828 8.26851 25.5179 8.26851C25.853 8.26851 25.9228 7.9194 25.9474 7.67493C25.9738 7.40884 25.8853 7.29581 25.9032 7.09128C25.9236 6.85674 26.1073 6.76821 26.1116 6.46735C26.1158 6.10866 25.9364 5.78669 25.17 5.54638C24.038 5.19168 23.9367 4.89039 23.0819 4.87098C21.8776 4.84359 22.0468 4.44225 20.6051 4.42071C19.3872 4.40256 19.6389 4.31836 19.1524 4.31836C18.6659 4.31836 18.5613 4.42071 18.2109 4.42071C17.9472 4.42071 17.8715 4.33888 17.5764 4.33888C17.3858 4.33888 16.7573 4.34202 16.6229 5.14911C16.6055 5.31508 16.6026 5.48226 16.6144 5.64873ZM27.2369 5.77151C27.2751 5.75735 27.4427 6.0376 27.8305 6.0376C28.5263 6.0376 28.3026 5.48499 28.6079 5.48499C28.7406 5.48499 28.9082 5.57953 28.9966 5.62821C29.0851 5.67688 29.1914 5.80179 29.3454 5.95569C29.4993 6.1096 29.8055 6.27792 29.7953 6.52883C29.7851 6.77974 29.7136 6.7917 29.7136 6.85623C29.7136 6.92076 29.7749 7.14962 29.7749 7.26562C29.7749 7.38162 29.7324 7.79772 29.2425 7.79772C29.1548 7.79772 28.9822 8.02285 28.6904 8.02285C28.2992 8.02285 28.1708 7.91262 27.9122 7.73633C27.7293 7.61142 27.094 7.5569 27.094 6.87675C27.094 6.67798 26.9706 6.45387 26.9706 6.28317C26.9706 6.11248 27.0897 5.82655 27.2369 5.77151Z" fill="#FDFCEC"/>
  </g>
  <defs>
    <clipPath id="clip0_4125_3211">
      <rect width="70" height="40" fill="white"/>
    </clipPath>
  </defs>
</svg>