<svg xmlns="http://www.w3.org/2000/svg" width="15" height="14" viewBox="0 0 15 14" fill="none">
  <g clip-path="url(#clip0_4125_3225)">
    <path d="M10.707 3.79232L13.9154 5.25065V12.834L9.83203 11.084M9.83203 11.084L5.16536 12.834M9.83203 11.084V7.00065M5.16536 12.834L1.08203 11.084V3.50065L3.9987 4.66732M5.16536 12.834V7.00065M7.4987 9.49323C7.4987 9.49323 3.9987 6.70898 3.9987 4.08398C3.9987 1.89648 5.7487 0.583984 7.4987 0.583984C9.2487 0.583984 10.9987 1.89648 10.9987 4.08398C10.9987 6.70898 7.4987 9.49323 7.4987 9.49323ZM8.08203 4.08398C8.08203 3.92927 8.02057 3.7809 7.91118 3.67151C7.80178 3.56211 7.65341 3.50065 7.4987 3.50065C7.34399 3.50065 7.19562 3.56211 7.08622 3.67151C6.97682 3.7809 6.91536 3.92927 6.91536 4.08398C6.91536 4.23869 6.97682 4.38707 7.08622 4.49646C7.19562 4.60586 7.34399 4.66732 7.4987 4.66732C7.65341 4.66732 7.80178 4.60586 7.91118 4.49646C8.02057 4.38707 8.08203 4.23869 8.08203 4.08398Z" stroke="#F3C99D" stroke-width="1.16667"/>
  </g>
  <defs>
    <clipPath id="clip0_4125_3225">
      <rect width="14" height="14" fill="white" transform="translate(0.5)"/>
    </clipPath>
  </defs>
</svg>