<svg xmlns="http://www.w3.org/2000/svg" width="18" height="17" viewBox="0 0 18 17" fill="none">
  <g clip-path="url(#clip0_4125_1774)">
    <path d="M13.3724 16.3331C13.1818 16.3331 12.9922 16.2747 12.829 16.1581L8.99168 13.4062L5.1544 16.1581C4.99542 16.2725 4.80436 16.3337 4.60851 16.3331C4.41265 16.3324 4.22202 16.2698 4.06383 16.1544C3.90544 16.0396 3.7873 15.8778 3.72623 15.692C3.66517 15.5062 3.66429 15.3058 3.72374 15.1195L5.15487 10.5006L1.35203 7.82085C1.19442 7.70453 1.07738 7.54161 1.01745 7.35513C0.957516 7.16865 0.957732 6.96804 1.01806 6.78169C1.079 6.59587 1.19673 6.43386 1.35464 6.31851C1.51256 6.20316 1.7027 6.14029 1.89826 6.13876L6.60818 6.13169L8.10772 1.62743C8.1696 1.44187 8.28829 1.28049 8.44698 1.16613C8.60567 1.05177 8.79632 0.990234 8.99192 0.990234C9.18752 0.990234 9.37817 1.05177 9.53686 1.16613C9.69555 1.28049 9.81424 1.44187 9.87612 1.62743L11.3502 6.13169L16.0842 6.13876C16.28 6.13987 16.4705 6.20265 16.6286 6.3182C16.7867 6.43374 16.9044 6.59616 16.9649 6.7824C17.0254 6.96863 17.0257 7.16921 16.9658 7.35562C16.9058 7.54204 16.7886 7.70482 16.6309 7.82085L12.828 10.5006L14.2592 15.1195C14.3187 15.3058 14.3179 15.5061 14.2569 15.6919C14.1959 15.8777 14.0778 16.0396 13.9195 16.1544C13.7608 16.2707 13.5691 16.3333 13.3724 16.3331Z" fill="#FFAC33"/>
  </g>
  <defs>
    <clipPath id="clip0_4125_1774">
      <rect width="16.9812" height="16.9812" fill="white" transform="translate(0.5)"/>
    </clipPath>
  </defs>
</svg>