<svg width="131" height="23" viewBox="0 0 131 23" fill="none" xmlns="http://www.w3.org/2000/svg">
<g filter="url(#filter0_ddi_4107_586)">
<rect x="3" y="3" width="125" height="14.4444" rx="3" fill="#161616"/>
<rect x="3.2" y="3.2" width="124.6" height="14.0444" rx="2.8" stroke="black" stroke-width="0.4"/>
</g>
<mask id="path-3-inside-1_4107_586" fill="white">
<path d="M8 13.8516H123V9.99971H8V13.8516Z"/>
</mask>
<path d="M8 13.8516H123V9.99971H8V13.8516Z" fill="#F3CA9E" fill-opacity="0.41"/>
<path d="M123 13.8516V14.3516H120.982V13.8516V13.3516H123V13.8516ZM118.965 13.8516V14.3516H114.93V13.8516V13.3516H118.965V13.8516ZM112.912 13.8516V14.3516H108.877V13.8516V13.3516H112.912V13.8516ZM106.86 13.8516V14.3516H102.825V13.8516V13.3516H106.86V13.8516ZM100.807 13.8516V14.3516H96.7719V13.8516V13.3516H100.807V13.8516ZM94.7544 13.8516V14.3516H90.7193V13.8516V13.3516H94.7544V13.8516ZM88.7018 13.8516V14.3516H84.6667V13.8516V13.3516H88.7018V13.8516ZM82.6491 13.8516V14.3516H78.614V13.8516V13.3516H82.6491V13.8516ZM76.5965 13.8516V14.3516H72.5614V13.8516V13.3516H76.5965V13.8516ZM70.5439 13.8516V14.3516H66.5088V13.8516V13.3516H70.5439V13.8516ZM64.4912 13.8516V14.3516H60.4561V13.8516V13.3516H64.4912V13.8516ZM58.4386 13.8516V14.3516H54.4035V13.8516V13.3516H58.4386V13.8516ZM52.386 13.8516V14.3516H48.3509V13.8516V13.3516H52.386V13.8516ZM46.3333 13.8516V14.3516H42.2983V13.8516V13.3516H46.3333V13.8516ZM40.2807 13.8516V14.3516H36.2456V13.8516V13.3516H40.2807V13.8516ZM34.2281 13.8516V14.3516H30.193V13.8516V13.3516H34.2281V13.8516ZM28.1755 13.8516V14.3516H24.1404V13.8516V13.3516H28.1755V13.8516ZM22.1228 13.8516V14.3516H18.0877V13.8516V13.3516H22.1228V13.8516ZM16.0702 13.8516V14.3516H12.0351V13.8516V13.3516H16.0702V13.8516ZM10.0176 13.8516V14.3516H8V13.8516V13.3516H10.0176V13.8516ZM123 13.8516V14.8516H120.982V13.8516V12.8516H123V13.8516ZM118.965 13.8516V14.8516H114.93V13.8516V12.8516H118.965V13.8516ZM112.912 13.8516V14.8516H108.877V13.8516V12.8516H112.912V13.8516ZM106.86 13.8516V14.8516H102.825V13.8516V12.8516H106.86V13.8516ZM100.807 13.8516V14.8516H96.7719V13.8516V12.8516H100.807V13.8516ZM94.7544 13.8516V14.8516H90.7193V13.8516V12.8516H94.7544V13.8516ZM88.7018 13.8516V14.8516H84.6667V13.8516V12.8516H88.7018V13.8516ZM82.6491 13.8516V14.8516H78.614V13.8516V12.8516H82.6491V13.8516ZM76.5965 13.8516V14.8516H72.5614V13.8516V12.8516H76.5965V13.8516ZM70.5439 13.8516V14.8516H66.5088V13.8516V12.8516H70.5439V13.8516ZM64.4912 13.8516V14.8516H60.4561V13.8516V12.8516H64.4912V13.8516ZM58.4386 13.8516V14.8516H54.4035V13.8516V12.8516H58.4386V13.8516ZM52.386 13.8516V14.8516H48.3509V13.8516V12.8516H52.386V13.8516ZM46.3333 13.8516V14.8516H42.2983V13.8516V12.8516H46.3333V13.8516ZM40.2807 13.8516V14.8516H36.2456V13.8516V12.8516H40.2807V13.8516ZM34.2281 13.8516V14.8516H30.193V13.8516V12.8516H34.2281V13.8516ZM28.1755 13.8516V14.8516H24.1404V13.8516V12.8516H28.1755V13.8516ZM22.1228 13.8516V14.8516H18.0877V13.8516V12.8516H22.1228V13.8516ZM16.0702 13.8516V14.8516H12.0351V13.8516V12.8516H16.0702V13.8516ZM10.0176 13.8516V14.8516H8V13.8516V12.8516H10.0176V13.8516Z" fill="#201E1E" mask="url(#path-3-inside-1_4107_586)"/>
<defs>
<filter id="filter0_ddi_4107_586" x="0.4" y="0.8" width="130.2" height="21.2443" filterUnits="userSpaceOnUse" color-interpolation-filters="sRGB">
<feFlood flood-opacity="0" result="BackgroundImageFix"/>
<feColorMatrix in="SourceAlpha" type="matrix" values="0 0 0 0 0 0 0 0 0 0 0 0 0 0 0 0 0 0 127 0" result="hardAlpha"/>
<feOffset dy="2"/>
<feGaussianBlur stdDeviation="1.3"/>
<feComposite in2="hardAlpha" operator="out"/>
<feColorMatrix type="matrix" values="0 0 0 0 0 0 0 0 0 0 0 0 0 0 0 0 0 0 0.3 0"/>
<feBlend mode="normal" in2="BackgroundImageFix" result="effect1_dropShadow_4107_586"/>
<feColorMatrix in="SourceAlpha" type="matrix" values="0 0 0 0 0 0 0 0 0 0 0 0 0 0 0 0 0 0 127 0" result="hardAlpha"/>
<feOffset dy="-1"/>
<feGaussianBlur stdDeviation="0.6"/>
<feComposite in2="hardAlpha" operator="out"/>
<feColorMatrix type="matrix" values="0 0 0 0 1 0 0 0 0 1 0 0 0 0 1 0 0 0 0.03 0"/>
<feBlend mode="normal" in2="effect1_dropShadow_4107_586" result="effect2_dropShadow_4107_586"/>
<feBlend mode="normal" in="SourceGraphic" in2="effect2_dropShadow_4107_586" result="shape"/>
<feColorMatrix in="SourceAlpha" type="matrix" values="0 0 0 0 0 0 0 0 0 0 0 0 0 0 0 0 0 0 127 0" result="hardAlpha"/>
<feOffset dy="1"/>
<feGaussianBlur stdDeviation="0.5"/>
<feComposite in2="hardAlpha" operator="arithmetic" k2="-1" k3="1"/>
<feColorMatrix type="matrix" values="0 0 0 0 0 0 0 0 0 0 0 0 0 0 0 0 0 0 0.25 0"/>
<feBlend mode="normal" in2="shape" result="effect3_innerShadow_4107_586"/>
</filter>
</defs>
</svg>
